<?xml version="1.0" standalone="no"?>
<!DOCTYPE svg PUBLIC "-//W3C//DTD SVG 20010904//EN"
 "http://www.w3.org/TR/2001/REC-SVG-20010904/DTD/svg10.dtd">
<svg version="1.0" xmlns="http://www.w3.org/2000/svg"
 width="1000.000000pt" height="1000.000000pt" viewBox="0 0 1000.000000 1000.000000"
 preserveAspectRatio="xMidYMid meet">
<metadata>
Created by potrace 1.11, written by Peter Selinger 2001-2013
</metadata>
<g transform="translate(0.000000,1000.000000) scale(0.100000,-0.100000)"
fill="#000000" stroke="none">
<path d="M5496 6185 c-253 -41 -497 -169 -629 -330 -46 -55 -115 -166 -130
-209 -9 -27 -11 -28 -18 -10 -4 10 -8 98 -8 195 -1 97 -4 204 -7 238 l-7 61
-170 0 -170 0 6 -152 c4 -83 7 -702 7 -1375 l0 -1223 164 0 165 0 4 873 c3
854 4 874 25 969 81 358 273 586 572 680 67 20 94 23 255 23 201 0 256 -10
380 -69 184 -87 298 -242 357 -484 21 -85 22 -109 25 -1039 l4 -953 164 0 165
0 0 828 c0 508 4 859 10 910 21 168 94 360 185 487 93 130 233 233 393 288 78
26 104 30 242 34 195 7 298 -10 418 -68 192 -93 295 -260 348 -569 15 -82 17
-217 21 -1002 l4 -908 165 0 164 0 0 925 c0 594 -4 961 -11 1023 -51 466 -265
742 -654 843 -80 21 -113 24 -285 24 -221 -1 -310 -14 -467 -70 -132 -47 -233
-107 -325 -194 -97 -91 -154 -170 -212 -291 l-44 -92 -25 77 c-91 268 -310
465 -605 542 -123 32 -340 40 -476 18z"/>
<path d="M1280 6133 c0 -4 258 -625 572 -1380 l573 -1373 185 0 185 1 575
1361 c316 749 576 1370 578 1380 3 17 -7 18 -166 18 -126 0 -171 -3 -175 -12
-25 -61 -886 -2195 -928 -2300 -30 -76 -57 -138 -60 -138 -3 0 -50 114 -104
253 -54 138 -273 684 -488 1212 -214 528 -391 966 -394 973 -4 9 -49 12 -179
12 -96 0 -174 -3 -174 -7z"/>
</g>
</svg>
