<?xml version="1.0" standalone="no"?>
<!DOCTYPE svg PUBLIC "-//W3C//DTD SVG 20010904//EN"
 "http://www.w3.org/TR/2001/REC-SVG-20010904/DTD/svg10.dtd">
<svg version="1.0" xmlns="http://www.w3.org/2000/svg"
 width="1000.000000pt" height="1000.000000pt" viewBox="0 0 1000.000000 1000.000000"
 preserveAspectRatio="xMidYMid meet">
<metadata>
Created by potrace 1.11, written by Peter Selinger 2001-2013
</metadata>
<g transform="translate(0.000000,1000.000000) scale(0.100000,-0.100000)"
fill="#000000" stroke="none">
<path d="M5485 6185 c-255 -47 -480 -166 -614 -325 -50 -60 -140 -205 -142
-229 -1 -9 -5 4 -10 29 -4 25 -8 122 -8 216 -1 94 -4 192 -7 218 l-7 46 -170
0 -170 0 6 -187 c4 -104 7 -725 7 -1380 l0 -1193 164 0 165 0 4 868 c4 943 4
930 63 1107 96 288 277 471 541 547 68 20 100 23 253 23 137 -1 189 -5 239
-19 304 -84 470 -299 511 -661 6 -54 10 -444 10 -977 l0 -888 165 0 164 0 4
878 c3 853 4 879 24 963 75 304 228 514 458 628 134 66 185 76 390 76 158 0
190 -3 260 -23 179 -52 293 -146 368 -304 51 -107 70 -171 94 -319 14 -90 17
-223 20 -1001 l4 -898 165 0 164 0 0 934 c0 1014 -2 1067 -55 1252 -14 49 -49
136 -77 194 -44 91 -62 115 -142 195 -79 79 -105 98 -196 143 -162 80 -244 96
-480 97 -212 0 -299 -12 -447 -62 -261 -87 -465 -269 -565 -506 -17 -40 -31
-73 -33 -75 -1 -1 -12 29 -25 67 -87 272 -323 479 -632 557 -91 23 -360 28
-463 9z"/>
<path d="M1280 6133 c0 -5 257 -626 572 -1380 l572 -1373 186 0 185 0 578
1368 c317 752 577 1373 577 1380 0 10 -38 12 -171 10 l-171 -3 -488 -1210
c-269 -665 -492 -1216 -497 -1223 -5 -9 -44 78 -113 255 -57 147 -278 698
-491 1223 l-388 955 -175 3 c-97 1 -176 -1 -176 -5z"/>
</g>
</svg>
